<svg xmlns="http://www.w3.org/2000/svg" viewBox="-292 394.708 26.323 5.292"><g fill="#00addb"><path d="M-291.032 399.693c.512-.619.054-1.503-.365-2.2-.252-.419-.403-.76-.461-1.043a1.271 1.271 0 01.325-1.105c.193-.211.338-.296.466-.356.124-.058.33-.126.501-.126h.018c.358.01.619.135.846.406.069.082.134.165.195.249.076-.112.163-.211.259-.296.264-.233.59-.382.895-.407.027-.002.055-.004.083-.004.306 0 .627.138.859.369.408.405.493 1.059.232 1.793-.176.496-.51 1.186-1.099 1.652-.103.082-.204.137-.32.201a6.536 6.536 0 00-.163.092c.44-.382.673-1.04.853-1.586.086-.261.266-.909.046-1.499-.139-.374-.359-.548-.691-.548a.531.531 0 00-.39.152c-.168.162-.275.301-.334.437.064.113.12.227.167.339.086.205.245.586.001.782a3.467 3.467 0 01-.238.145c-.1.058-.212.124-.24.145l-.064.047-.036-.071c-.142-.281-.183-.637-.118-1.004a1.576 1.576 0 00-.179-.359 1.848 1.848 0 00-.546-.494.394.394 0 00-.187-.048c-.134 0-.266.072-.383.208-.1.117-.14.333-.108.576.028.208.213.567.408.947.168.326.341.663.448.963.12.336.038.749-.095 1.009-.08.155-.297.36-.456.509-.052.049-.098.092-.129.125zm7.907-.994v-3.384h.665v.187a.977.977 0 01.132-.081c.182-.098.366-.106.587-.106h.182l-.001.642-.074-.009s-.022-.002-.058-.002a.892.892 0 00-.5.149.547.547 0 00-.195.303c-.033.102-.05.246-.05.428v1.874h-.688v-.001zm1.823 0v-3.384h.665v.187c.038-.028.081-.054.132-.081.182-.098.366-.106.587-.106h.156l.323.64-.116-.007s-.041-.003-.104-.003c-.148 0-.514.015-.71.15a.547.547 0 00-.195.303c-.033.102-.05.246-.05.428v1.874h-.688v-.001zm-3.867.07c-.976 0-1.77-.794-1.77-1.77a1.772 1.772 0 012.89-1.37v-.314h.665v3.384h-.665v-.329a1.761 1.761 0 01-1.12.399zm.011-2.863c-.611 0-1.109.497-1.109 1.109s.498 1.109 1.109 1.109a1.11 1.11 0 000-2.218z"/><path d="M-279.367 399.897l1.081-2.15-1.216-2.432h.772l.827 1.671.841-1.671h.797l-2.297 4.582zm7.247-2.982c-.302 0-.487.298-.487.575 0 .277.185.579.487.579s.491-.302.491-.579c0-.278-.189-.575-.491-.575z"/><path d="M-265.796 398.406l-.134-2.658a.936.936 0 00-.982-.888l-3.269.168v1.623a.757.757 0 01.571-.256c.583 0 .94.546.94 1.087 0 .563-.344 1.108-.953 1.108-.21 0-.432-.092-.55-.26h-.008v.193h-.587v-3.465l-3.986.204v1.389a.757.757 0 01.571-.256c.583 0 .94.546.94 1.087 0 .563-.344 1.108-.953 1.108-.21 0-.432-.092-.55-.26h-.008v.193h-.587v-3.228a.936.936 0 00-.831.976l.134 2.659a.936.936 0 00.982.888l6.554-.336.613-1.274-.877-1.746h.667l.491 1.171.529-1.171h.655l-1.416 2.986 1.158-.059a.938.938 0 00.886-.983zm-5.313.116h-.579v-.189h-.008a.711.711 0 01-.558.256c-.604 0-.949-.55-.949-1.108 0-.546.348-1.087.94-1.087.214 0 .432.093.575.26v-.193h.579v2.061z"/><path d="M-274.327 398.069c.302 0 .487-.302.487-.579s-.185-.575-.487-.575-.487.298-.487.575.184.579.487.579zm4.573 0c.302 0 .487-.302.487-.579s-.185-.575-.487-.575-.487.298-.487.575.185.579.487.579z"/></g></svg>