<svg xmlns="http://www.w3.org/2000/svg" viewBox="-297 394.765 15.531 5.235"><g fill="#ec3d79"><path d="M-296.091 399.685c.504-.61.053-1.481-.36-2.167-.249-.413-.397-.749-.454-1.027a1.254 1.254 0 01.32-1.089c.19-.208.333-.291.459-.351.122-.057.325-.124.494-.124h.017c.353.01.61.133.833.4.068.081.132.163.192.246.075-.11.16-.208.255-.291.26-.23.582-.376.882-.401l.081-.003c.301 0 .618.136.847.363.402.399.486 1.043.229 1.766-.174.489-.503 1.169-1.083 1.627-.102.08-.201.135-.315.198-.05.028-.103.057-.161.091.434-.377.663-1.025.84-1.563.085-.257.262-.895.045-1.476-.137-.368-.354-.54-.68-.54a.522.522 0 00-.384.15 1.39 1.39 0 00-.329.43c.063.111.119.224.165.334.084.202.241.578.001.771a3.557 3.557 0 01-.234.142 4.916 4.916 0 00-.236.142l-.063.046-.035-.07c-.139-.277-.181-.628-.116-.99a1.529 1.529 0 00-.176-.354 1.821 1.821 0 00-.538-.487.383.383 0 00-.184-.048c-.132 0-.262.071-.377.206-.099.115-.138.328-.106.567.028.205.21.559.402.933.165.321.336.654.442.948.118.331.038.738-.094.994-.079.153-.293.354-.45.501l-.129.126zm7.791-.979v-3.334h.655v.184c.038-.028.079-.053.13-.08.179-.097.36-.105.579-.105h.179l-.001.633-.073-.008s-.021-.002-.057-.002a.875.875 0 00-.492.147.547.547 0 00-.192.298c-.033.1-.049.242-.049.422v1.846l-.679-.001zm1.796 0v-3.334h.655v.184c.038-.028.079-.053.13-.08.179-.097.36-.105.579-.105h.154l.319.631-.115-.007s-.04-.002-.103-.002c-.146 0-.507.014-.699.148-.108.075-.156.188-.192.298-.033.1-.049.242-.049.422v1.846l-.679-.001zm-3.809.07a1.746 1.746 0 01-1.744-1.744 1.746 1.746 0 012.847-1.351v-.309h.655v3.334h-.655v-.324c-.31.254-.697.394-1.103.394zm.01-2.822a1.094 1.094 0 10.002 2.188 1.094 1.094 0 00-.002-2.188z"/><path d="M-284.597 399.888l1.065-2.12-1.199-2.396h.761l.815 1.647.829-1.647h.785l-2.263 4.516z"/></g></svg>