<svg width="110" height="46" fill="none" xmlns="http://www.w3.org/2000/svg"><path d="M14.723 12.577c-.657-.457-1.407-.548-2.157-.548-1.876 0-3 1.005-3 3.017v2.194h4.594v4.754H9.565v16.64H3.564v-16.64H0V17.24h3.564v-2.651C3.564 9.743 6.658 7 11.347 7c1.407 0 2.532.183 3.376.549v5.028zM31.228 23c-.844-.457-1.876-.732-3.095-.732-2.063 0-3.751 1.098-4.22 3.018v13.257h-6.095V17.148h6.095v2.103c.938-1.554 2.72-2.56 4.876-2.56 1.032 0 1.97.183 2.345.366V23h.094zM46.7 31.229c-.562-1.189-2.25-1.829-3.938-1.829-1.875 0-3.845.823-3.845 2.651 0 1.829 1.97 2.652 3.845 2.652 1.782 0 3.47-.732 3.939-1.829V31.23zm0 7.405v-1.188c-.75.731-3 1.554-5.345 1.554-4.407 0-8.158-2.469-8.158-6.949 0-4.114 3.751-6.857 8.534-6.857 1.875 0 4.126.64 5.063 1.28V24.92c0-1.829-1.125-3.291-3.563-3.291-1.688 0-2.72.731-3.282 2.011h-5.814c.656-3.84 4.22-6.857 9.284-6.857 5.814 0 9.283 3.108 9.283 8.228v13.715h-6.001v-.092zm34.042-21.942c4.501 0 7.22 3.108 7.22 7.954v13.988h-6.095v-12.8c0-2.285-1.032-3.84-3.188-3.84-1.595 0-3.001.915-3.376 2.743v13.806h-6.19v-12.8c0-2.286-.937-3.84-3.094-3.84-1.594 0-3.095.914-3.47 2.743v13.806h-6.095V17.149h6.095v1.737c1.125-1.372 3.095-2.286 5.533-2.286 2.626 0 4.689 1.189 5.908 2.743 1.5-1.463 3.657-2.651 6.752-2.651zm16.879-7.498L90.87 19.71h5.72l3.845-6.035 3.845 6.035H110l-6.846-10.515h-5.532z" fill="#E4002B"/></svg>